<mxfile host="Electron" modified="2024-05-28T09:53:17.215Z" agent="Mozilla/5.0 (X11; Linux x86_64) AppleWebKit/537.36 (KHTML, like Gecko) draw.io/24.4.8 Chrome/124.0.6367.207 Electron/30.0.6 Safari/537.36" etag="F7IMZyiI8zsa7ngAZzcq" version="24.4.8" type="device">
  <diagram id="-yIefFwEG4xaWeUd9_VL" name="Page-1">
    <mxGraphModel dx="2284" dy="835" grid="1" gridSize="10" guides="1" tooltips="1" connect="1" arrows="1" fold="1" page="1" pageScale="1" pageWidth="850" pageHeight="1100" math="0" shadow="0">
      <root>
        <mxCell id="0" />
        <mxCell id="1" parent="0" />
        <mxCell id="iXj1oflpSY-SVl1FxMXK-1" value="" style="whiteSpace=wrap;html=1;dashed=1;sketch=1;labelBackgroundColor=none;fillColor=#FAE5C7;strokeColor=#0F8B8D;fontColor=#143642;" parent="1" vertex="1">
          <mxGeometry x="-480" y="280" width="600" height="390" as="geometry" />
        </mxCell>
        <mxCell id="iXj1oflpSY-SVl1FxMXK-52" value="" style="whiteSpace=wrap;html=1;dashed=1;dashPattern=1 1;strokeColor=#0F8B8D;fillColor=#FAE5C7;fontFamily=Times New Roman;sketch=1;labelBackgroundColor=none;fontColor=#143642;" parent="1" vertex="1">
          <mxGeometry x="-30" y="300" width="140" height="240" as="geometry" />
        </mxCell>
        <mxCell id="iXj1oflpSY-SVl1FxMXK-2" value="" style="whiteSpace=wrap;html=1;dashed=1;sketch=1;labelBackgroundColor=none;fillColor=#FAE5C7;strokeColor=#0F8B8D;fontColor=#143642;" parent="1" vertex="1">
          <mxGeometry x="-480" y="680" width="580" height="200" as="geometry" />
        </mxCell>
        <mxCell id="iXj1oflpSY-SVl1FxMXK-47" value="" style="whiteSpace=wrap;html=1;dashed=1;dashPattern=1 1;strokeColor=#0F8B8D;fillColor=#FAE5C7;fontFamily=Times New Roman;sketch=1;labelBackgroundColor=none;fontColor=#143642;" parent="1" vertex="1">
          <mxGeometry x="-470" y="690" width="430" height="140" as="geometry" />
        </mxCell>
        <mxCell id="iXj1oflpSY-SVl1FxMXK-28" value="" style="whiteSpace=wrap;html=1;dashed=1;dashPattern=1 1;strokeColor=#0F8B8D;fillColor=#FAE5C7;fontFamily=Times New Roman;sketch=1;labelBackgroundColor=none;fontColor=#143642;" parent="1" vertex="1">
          <mxGeometry x="-470" y="300" width="430" height="320" as="geometry" />
        </mxCell>
        <mxCell id="iXj1oflpSY-SVl1FxMXK-3" value="" style="whiteSpace=wrap;html=1;dashed=1;sketch=1;labelBackgroundColor=none;fillColor=#FAE5C7;strokeColor=#0F8B8D;fontColor=#143642;" parent="1" vertex="1">
          <mxGeometry x="110" y="680" width="360" height="200" as="geometry" />
        </mxCell>
        <mxCell id="iXj1oflpSY-SVl1FxMXK-4" value="&lt;b style=&quot;font-size: 11px;&quot;&gt;&lt;br style=&quot;font-size: 11px;&quot;&gt;GRAPH DB&lt;/b&gt;" style="shape=cylinder2;whiteSpace=wrap;html=1;boundedLbl=1;backgroundOutline=1;size=15;strokeColor=#0F8B8D;fillColor=#FAE5C7;sketch=1;labelBackgroundColor=none;fontColor=#143642;fontSize=11;" parent="1" vertex="1">
          <mxGeometry x="-440" y="709" width="60" height="80" as="geometry" />
        </mxCell>
        <mxCell id="iXj1oflpSY-SVl1FxMXK-5" value="&lt;b style=&quot;font-size: 11px;&quot;&gt;&lt;br&gt;GRAPH DB&lt;/b&gt;" style="shape=cylinder2;whiteSpace=wrap;html=1;boundedLbl=1;backgroundOutline=1;size=15;strokeColor=#0F8B8D;fillColor=#FAE5C7;sketch=1;labelBackgroundColor=none;fontColor=#143642;" parent="1" vertex="1">
          <mxGeometry x="-310" y="709" width="60" height="80" as="geometry" />
        </mxCell>
        <mxCell id="iXj1oflpSY-SVl1FxMXK-6" value="&lt;b style=&quot;font-size: 11px;&quot;&gt;&lt;br&gt;GRAPH DB&lt;/b&gt;" style="shape=cylinder2;whiteSpace=wrap;html=1;boundedLbl=1;backgroundOutline=1;size=15;strokeColor=#0F8B8D;fillColor=#FAE5C7;sketch=1;labelBackgroundColor=none;fontColor=#143642;" parent="1" vertex="1">
          <mxGeometry x="-190" y="709" width="60" height="80" as="geometry" />
        </mxCell>
        <mxCell id="iXj1oflpSY-SVl1FxMXK-7" value="&lt;font style=&quot;font-size: 29px&quot;&gt;......&lt;/font&gt;" style="text;html=1;strokeColor=none;fillColor=none;align=center;verticalAlign=middle;whiteSpace=wrap;sketch=1;labelBackgroundColor=none;fontColor=#143642;" parent="1" vertex="1">
          <mxGeometry x="-91" y="739" width="40" height="20" as="geometry" />
        </mxCell>
        <mxCell id="iXj1oflpSY-SVl1FxMXK-8" value="&lt;font size=&quot;1&quot; face=&quot;Verdana&quot;&gt;&lt;b style=&quot;font-size: 18px&quot;&gt;Core Realm 核心领域模型组件&lt;/b&gt;&lt;/font&gt;" style="text;html=1;strokeColor=none;fillColor=none;align=center;verticalAlign=middle;whiteSpace=wrap;fontFamily=Times New Roman;sketch=1;labelBackgroundColor=none;fontColor=#143642;" parent="1" vertex="1">
          <mxGeometry x="-530" y="848" width="410" height="20" as="geometry" />
        </mxCell>
        <mxCell id="iXj1oflpSY-SVl1FxMXK-15" value="&lt;font size=&quot;1&quot; face=&quot;Verdana&quot;&gt;&lt;b style=&quot;font-size: 20px&quot;&gt;Realm Knowledge Management&lt;br&gt;领域模型知识管理组件&lt;/b&gt;&lt;/font&gt;" style="text;html=1;strokeColor=none;fillColor=none;align=center;verticalAlign=middle;whiteSpace=wrap;fontFamily=Times New Roman;sketch=1;labelBackgroundColor=none;fontColor=#143642;" parent="1" vertex="1">
          <mxGeometry x="63" y="840" width="410" height="20" as="geometry" />
        </mxCell>
        <mxCell id="iXj1oflpSY-SVl1FxMXK-17" value="&lt;font style=&quot;font-size: 19px&quot;&gt;&lt;b&gt;规则引擎&lt;/b&gt;&lt;/font&gt;" style="shape=cube;whiteSpace=wrap;html=1;boundedLbl=1;backgroundOutline=1;darkOpacity=0.05;darkOpacity2=0.1;strokeColor=#0F8B8D;fillColor=#FAE5C7;fontFamily=Times New Roman;sketch=1;labelBackgroundColor=none;fontColor=#143642;" parent="1" vertex="1">
          <mxGeometry x="140" y="725" width="120" height="80" as="geometry" />
        </mxCell>
        <mxCell id="iXj1oflpSY-SVl1FxMXK-18" value="&lt;b style=&quot;font-size: 14px&quot;&gt;&lt;br&gt;JAVA SDK&lt;/b&gt;" style="html=1;dashed=0;whitespace=wrap;shape=mxgraph.dfd.externalEntity;strokeColor=#0F8B8D;fontFamily=Times New Roman;fillColor=#FAE5C7;sketch=1;labelBackgroundColor=none;fontColor=#143642;" parent="1" vertex="1">
          <mxGeometry x="-20" y="725" width="100" height="80" as="geometry" />
        </mxCell>
        <mxCell id="iXj1oflpSY-SVl1FxMXK-19" value=" " style="autosize=1;part=1;resizable=0;strokeColor=#0F8B8D;fillColor=#FAE5C7;sketch=1;labelBackgroundColor=none;fontColor=#143642;" parent="iXj1oflpSY-SVl1FxMXK-18" vertex="1">
          <mxGeometry width="20" height="20" relative="1" as="geometry">
            <mxPoint x="15" y="15" as="offset" />
          </mxGeometry>
        </mxCell>
        <mxCell id="iXj1oflpSY-SVl1FxMXK-20" value="&lt;b style=&quot;font-size: 14px&quot;&gt;&lt;br&gt;JAVA SDK&lt;/b&gt;" style="html=1;dashed=0;whitespace=wrap;shape=mxgraph.dfd.externalEntity;strokeColor=#0F8B8D;fontFamily=Times New Roman;fillColor=#FAE5C7;sketch=1;labelBackgroundColor=none;fontColor=#143642;" parent="1" vertex="1">
          <mxGeometry x="330" y="725" width="100" height="80" as="geometry" />
        </mxCell>
        <mxCell id="iXj1oflpSY-SVl1FxMXK-21" value=" " style="autosize=1;part=1;resizable=0;strokeColor=#0F8B8D;fillColor=#FAE5C7;sketch=1;labelBackgroundColor=none;fontColor=#143642;" parent="iXj1oflpSY-SVl1FxMXK-20" vertex="1">
          <mxGeometry width="20" height="20" relative="1" as="geometry">
            <mxPoint x="15" y="15" as="offset" />
          </mxGeometry>
        </mxCell>
        <mxCell id="iXj1oflpSY-SVl1FxMXK-22" value="" style="whiteSpace=wrap;html=1;dashed=1;sketch=1;labelBackgroundColor=none;fillColor=#FAE5C7;strokeColor=#0F8B8D;fontColor=#143642;" parent="1" vertex="1">
          <mxGeometry x="130" y="280" width="340" height="390" as="geometry" />
        </mxCell>
        <mxCell id="iXj1oflpSY-SVl1FxMXK-25" value="&lt;font size=&quot;1&quot; face=&quot;Verdana&quot;&gt;&lt;b style=&quot;font-size: 18px&quot;&gt;Data Compute 数据计算服务节点集群&lt;/b&gt;&lt;/font&gt;" style="text;html=1;strokeColor=none;fillColor=none;align=center;verticalAlign=middle;whiteSpace=wrap;fontFamily=Times New Roman;sketch=1;labelBackgroundColor=none;fontColor=#143642;" parent="1" vertex="1">
          <mxGeometry x="-566" y="635" width="515" height="20" as="geometry" />
        </mxCell>
        <mxCell id="iXj1oflpSY-SVl1FxMXK-26" value="" style="html=1;whiteSpace=wrap;shape=isoCube2;backgroundOutline=1;isoAngle=15;strokeColor=#0F8B8D;fontFamily=Times New Roman;strokeWidth=1;fillColor=#FAE5C7;sketch=1;labelBackgroundColor=none;fontColor=#143642;" parent="1" vertex="1">
          <mxGeometry x="-440" y="316" width="60" height="60" as="geometry" />
        </mxCell>
        <mxCell id="iXj1oflpSY-SVl1FxMXK-30" value="&lt;b&gt;In Memory Data slice&lt;/b&gt;" style="text;html=1;strokeColor=none;fillColor=none;align=center;verticalAlign=middle;whiteSpace=wrap;fontFamily=Times New Roman;sketch=1;labelBackgroundColor=none;fontColor=#143642;" parent="1" vertex="1">
          <mxGeometry x="-445" y="386" width="70" height="20" as="geometry" />
        </mxCell>
        <mxCell id="iXj1oflpSY-SVl1FxMXK-31" value="&lt;font size=&quot;1&quot; face=&quot;Verdana&quot;&gt;&lt;b style=&quot;font-size: 21px&quot;&gt;Memory Compute Cluster Tec (待分析热数据)&lt;/b&gt;&lt;/font&gt;" style="text;html=1;strokeColor=none;fillColor=none;align=center;verticalAlign=middle;whiteSpace=wrap;fontFamily=Times New Roman;sketch=1;labelBackgroundColor=none;fontColor=#143642;" parent="1" vertex="1">
          <mxGeometry x="-519" y="580" width="530" height="20" as="geometry" />
        </mxCell>
        <mxCell id="iXj1oflpSY-SVl1FxMXK-33" value="" style="html=1;whiteSpace=wrap;shape=isoCube2;backgroundOutline=1;isoAngle=15;strokeColor=#0F8B8D;fontFamily=Times New Roman;strokeWidth=1;fillColor=#FAE5C7;sketch=1;labelBackgroundColor=none;fontColor=#143642;" parent="1" vertex="1">
          <mxGeometry x="-305" y="316" width="60" height="60" as="geometry" />
        </mxCell>
        <mxCell id="iXj1oflpSY-SVl1FxMXK-34" value="" style="html=1;whiteSpace=wrap;shape=isoCube2;backgroundOutline=1;isoAngle=15;strokeColor=#0F8B8D;fontFamily=Times New Roman;strokeWidth=1;fillColor=#FAE5C7;sketch=1;labelBackgroundColor=none;fontColor=#143642;" parent="1" vertex="1">
          <mxGeometry x="-170" y="316" width="60" height="60" as="geometry" />
        </mxCell>
        <mxCell id="iXj1oflpSY-SVl1FxMXK-35" value="&lt;b&gt;In Memory Data slice&lt;/b&gt;" style="text;html=1;strokeColor=none;fillColor=none;align=center;verticalAlign=middle;whiteSpace=wrap;fontFamily=Times New Roman;sketch=1;labelBackgroundColor=none;fontColor=#143642;" parent="1" vertex="1">
          <mxGeometry x="-310" y="386" width="70" height="20" as="geometry" />
        </mxCell>
        <mxCell id="iXj1oflpSY-SVl1FxMXK-37" value="&lt;b&gt;In Memory Data slice&lt;/b&gt;" style="text;html=1;strokeColor=none;fillColor=none;align=center;verticalAlign=middle;whiteSpace=wrap;fontFamily=Times New Roman;sketch=1;labelBackgroundColor=none;fontColor=#143642;" parent="1" vertex="1">
          <mxGeometry x="-171" y="386" width="70" height="20" as="geometry" />
        </mxCell>
        <mxCell id="iXj1oflpSY-SVl1FxMXK-38" value="" style="html=1;whiteSpace=wrap;shape=isoCube2;backgroundOutline=1;isoAngle=15;strokeColor=#0F8B8D;fontFamily=Times New Roman;strokeWidth=1;fillColor=#FAE5C7;sketch=1;labelBackgroundColor=none;fontColor=#143642;" parent="1" vertex="1">
          <mxGeometry x="-435" y="456" width="60" height="60" as="geometry" />
        </mxCell>
        <mxCell id="iXj1oflpSY-SVl1FxMXK-39" value="&lt;b&gt;In Memory Data slice&lt;/b&gt;" style="text;html=1;strokeColor=none;fillColor=none;align=center;verticalAlign=middle;whiteSpace=wrap;fontFamily=Times New Roman;sketch=1;labelBackgroundColor=none;fontColor=#143642;" parent="1" vertex="1">
          <mxGeometry x="-440" y="526" width="70" height="20" as="geometry" />
        </mxCell>
        <mxCell id="iXj1oflpSY-SVl1FxMXK-40" value="" style="html=1;whiteSpace=wrap;shape=isoCube2;backgroundOutline=1;isoAngle=15;strokeColor=#0F8B8D;fontFamily=Times New Roman;strokeWidth=1;fillColor=#FAE5C7;sketch=1;labelBackgroundColor=none;fontColor=#143642;" parent="1" vertex="1">
          <mxGeometry x="-300" y="456" width="60" height="60" as="geometry" />
        </mxCell>
        <mxCell id="iXj1oflpSY-SVl1FxMXK-41" value="" style="html=1;whiteSpace=wrap;shape=isoCube2;backgroundOutline=1;isoAngle=15;strokeColor=#0F8B8D;fontFamily=Times New Roman;strokeWidth=1;fillColor=#FAE5C7;sketch=1;labelBackgroundColor=none;fontColor=#143642;" parent="1" vertex="1">
          <mxGeometry x="-166" y="456" width="60" height="60" as="geometry" />
        </mxCell>
        <mxCell id="iXj1oflpSY-SVl1FxMXK-42" value="&lt;b&gt;In Memory Data slice&lt;/b&gt;" style="text;html=1;strokeColor=none;fillColor=none;align=center;verticalAlign=middle;whiteSpace=wrap;fontFamily=Times New Roman;sketch=1;labelBackgroundColor=none;fontColor=#143642;" parent="1" vertex="1">
          <mxGeometry x="-305" y="526" width="70" height="20" as="geometry" />
        </mxCell>
        <mxCell id="iXj1oflpSY-SVl1FxMXK-43" value="&lt;b&gt;In Memory Data slice&lt;/b&gt;" style="text;html=1;strokeColor=none;fillColor=none;align=center;verticalAlign=middle;whiteSpace=wrap;fontFamily=Times New Roman;sketch=1;labelBackgroundColor=none;fontColor=#143642;" parent="1" vertex="1">
          <mxGeometry x="-166" y="526" width="70" height="20" as="geometry" />
        </mxCell>
        <mxCell id="iXj1oflpSY-SVl1FxMXK-44" value="&lt;font style=&quot;font-size: 29px&quot;&gt;......&lt;/font&gt;" style="text;html=1;strokeColor=none;fillColor=none;align=center;verticalAlign=middle;whiteSpace=wrap;sketch=1;labelBackgroundColor=none;fontColor=#143642;" parent="1" vertex="1">
          <mxGeometry x="-91" y="416" width="40" height="20" as="geometry" />
        </mxCell>
        <mxCell id="iXj1oflpSY-SVl1FxMXK-45" value="&lt;b style=&quot;font-size: 14px&quot;&gt;&lt;br&gt;JAVA SDK&lt;/b&gt;" style="html=1;dashed=0;whitespace=wrap;shape=mxgraph.dfd.externalEntity;strokeColor=#0F8B8D;fontFamily=Times New Roman;fillColor=#FAE5C7;sketch=1;labelBackgroundColor=none;fontColor=#143642;" parent="1" vertex="1">
          <mxGeometry x="-10" y="560" width="100" height="80" as="geometry" />
        </mxCell>
        <mxCell id="iXj1oflpSY-SVl1FxMXK-46" value=" " style="autosize=1;part=1;resizable=0;strokeColor=#0F8B8D;fillColor=#FAE5C7;sketch=1;labelBackgroundColor=none;fontColor=#143642;" parent="iXj1oflpSY-SVl1FxMXK-45" vertex="1">
          <mxGeometry width="20" height="20" relative="1" as="geometry">
            <mxPoint x="15" y="15" as="offset" />
          </mxGeometry>
        </mxCell>
        <mxCell id="iXj1oflpSY-SVl1FxMXK-48" value="&lt;font size=&quot;1&quot; face=&quot;Verdana&quot;&gt;&lt;b style=&quot;font-size: 21px&quot;&gt;图数据库集群&lt;/b&gt;&lt;/font&gt;" style="text;html=1;strokeColor=none;fillColor=none;align=center;verticalAlign=middle;whiteSpace=wrap;fontFamily=Times New Roman;sketch=1;labelBackgroundColor=none;fontColor=#143642;" parent="1" vertex="1">
          <mxGeometry x="-537" y="804" width="530" height="20" as="geometry" />
        </mxCell>
        <mxCell id="iXj1oflpSY-SVl1FxMXK-49" value="&lt;font face=&quot;Verdana&quot; style=&quot;font-size: 19px;&quot;&gt;&lt;span style=&quot;font-size: 19px;&quot;&gt;&lt;b style=&quot;font-size: 19px;&quot;&gt;&amp;nbsp;Data Analysis Provider&lt;/b&gt;&lt;/span&gt;&lt;b style=&quot;font-size: 19px;&quot;&gt;&amp;nbsp;时空一体化数据分析服务&lt;/b&gt;&lt;/font&gt;" style="text;html=1;strokeColor=none;fillColor=none;align=center;verticalAlign=middle;whiteSpace=wrap;fontFamily=Times New Roman;fontSize=19;sketch=1;labelBackgroundColor=none;fontColor=#143642;" parent="1" vertex="1">
          <mxGeometry x="140" y="640" width="320" height="20" as="geometry" />
        </mxCell>
        <mxCell id="iXj1oflpSY-SVl1FxMXK-50" value="&lt;font style=&quot;font-size: 14px&quot;&gt;&lt;b&gt;数据服务单元&lt;/b&gt;&lt;/font&gt;" style="shape=cube;whiteSpace=wrap;html=1;boundedLbl=1;backgroundOutline=1;darkOpacity=0.05;darkOpacity2=0.1;strokeColor=#0F8B8D;fillColor=#FAE5C7;fontFamily=Times New Roman;sketch=1;labelBackgroundColor=none;fontColor=#143642;" parent="1" vertex="1">
          <mxGeometry x="-20" y="316" width="120" height="80" as="geometry" />
        </mxCell>
        <mxCell id="iXj1oflpSY-SVl1FxMXK-51" value="&lt;font style=&quot;font-size: 14px&quot;&gt;&lt;b&gt;算法执行单元&lt;/b&gt;&lt;/font&gt;" style="shape=cube;whiteSpace=wrap;html=1;boundedLbl=1;backgroundOutline=1;darkOpacity=0.05;darkOpacity2=0.1;strokeColor=#0F8B8D;fillColor=#FAE5C7;fontFamily=Times New Roman;sketch=1;labelBackgroundColor=none;fontColor=#143642;" parent="1" vertex="1">
          <mxGeometry x="-20" y="416" width="120" height="80" as="geometry" />
        </mxCell>
        <mxCell id="iXj1oflpSY-SVl1FxMXK-53" value="&lt;font style=&quot;font-size: 29px&quot;&gt;......&lt;/font&gt;" style="text;html=1;strokeColor=none;fillColor=none;align=center;verticalAlign=middle;whiteSpace=wrap;sketch=1;labelBackgroundColor=none;fontColor=#143642;" parent="1" vertex="1">
          <mxGeometry x="23" y="505" width="40" height="20" as="geometry" />
        </mxCell>
        <mxCell id="iXj1oflpSY-SVl1FxMXK-54" value="&lt;span style=&quot;font-size: 19px&quot;&gt;&lt;b&gt;Apache Spark&lt;/b&gt;&lt;/span&gt;" style="shape=cube;whiteSpace=wrap;html=1;boundedLbl=1;backgroundOutline=1;darkOpacity=0.05;darkOpacity2=0.1;strokeColor=#0F8B8D;fontFamily=Times New Roman;fillColor=#FAE5C7;sketch=1;labelBackgroundColor=none;fontColor=#143642;" parent="1" vertex="1">
          <mxGeometry x="150" y="296" width="120" height="80" as="geometry" />
        </mxCell>
        <mxCell id="iXj1oflpSY-SVl1FxMXK-55" value="&lt;span style=&quot;font-size: 19px&quot;&gt;&lt;b&gt;In Memory Service&lt;/b&gt;&lt;/span&gt;" style="shape=cube;whiteSpace=wrap;html=1;boundedLbl=1;backgroundOutline=1;darkOpacity=0.05;darkOpacity2=0.1;strokeColor=#0F8B8D;fontFamily=Times New Roman;fillColor=#FAE5C7;sketch=1;labelBackgroundColor=none;fontColor=#143642;" parent="1" vertex="1">
          <mxGeometry x="150" y="420" width="120" height="80" as="geometry" />
        </mxCell>
        <mxCell id="iXj1oflpSY-SVl1FxMXK-56" value="&lt;span style=&quot;font-size: 19px&quot;&gt;&lt;b&gt;Oracle&amp;nbsp;&lt;br&gt;Tribuo&lt;/b&gt;&lt;br&gt;&lt;/span&gt;" style="shape=cube;whiteSpace=wrap;html=1;boundedLbl=1;backgroundOutline=1;darkOpacity=0.05;darkOpacity2=0.1;strokeColor=#0F8B8D;fontFamily=Times New Roman;fillColor=#FAE5C7;sketch=1;labelBackgroundColor=none;fontColor=#143642;" parent="1" vertex="1">
          <mxGeometry x="150" y="540" width="120" height="80" as="geometry" />
        </mxCell>
        <mxCell id="FtIpIJQFmfxV2Rt6HxiT-1" value="" style="ellipse;whiteSpace=wrap;html=1;aspect=fixed;fillColor=none;sketch=1;labelBackgroundColor=none;strokeColor=#0F8B8D;fontColor=#143642;" parent="1" vertex="1">
          <mxGeometry x="-208" y="285.5" width="136.5" height="136.5" as="geometry" />
        </mxCell>
        <mxCell id="FtIpIJQFmfxV2Rt6HxiT-2" value="Spark Dataframe/RDD" style="text;html=1;strokeColor=none;fillColor=none;align=center;verticalAlign=middle;whiteSpace=wrap;fontStyle=1;sketch=1;labelBackgroundColor=none;fontColor=#143642;" parent="1" vertex="1">
          <mxGeometry x="-30" y="251" width="190" height="20" as="geometry" />
        </mxCell>
        <mxCell id="FtIpIJQFmfxV2Rt6HxiT-4" value="" style="endArrow=none;html=1;entryX=0.766;entryY=0.077;entryDx=0;entryDy=0;entryPerimeter=0;startArrow=block;startFill=1;endFill=0;sketch=1;labelBackgroundColor=none;strokeColor=#A8201A;fontColor=default;" parent="1" source="iXj1oflpSY-SVl1FxMXK-54" target="FtIpIJQFmfxV2Rt6HxiT-1" edge="1">
          <mxGeometry width="50" height="50" relative="1" as="geometry">
            <mxPoint x="360" y="220" as="sourcePoint" />
            <mxPoint x="50" y="590" as="targetPoint" />
            <Array as="points">
              <mxPoint x="210" y="250" />
              <mxPoint x="-70" y="250" />
            </Array>
          </mxGeometry>
        </mxCell>
        <mxCell id="e-PfQ35jhl6F61MtkI1w-1" value="" style="rhombus;whiteSpace=wrap;html=1;fillColor=#FAE5C7;sketch=1;labelBackgroundColor=none;strokeColor=#0F8B8D;fontColor=#143642;" parent="1" vertex="1">
          <mxGeometry x="285" y="290" width="30" height="30" as="geometry" />
        </mxCell>
        <mxCell id="e-PfQ35jhl6F61MtkI1w-2" value="Sedona （空间计算）" style="text;html=1;strokeColor=none;fillColor=none;align=center;verticalAlign=middle;whiteSpace=wrap;sketch=1;labelBackgroundColor=none;fontColor=#143642;" parent="1" vertex="1">
          <mxGeometry x="311" y="294" width="140" height="20" as="geometry" />
        </mxCell>
        <mxCell id="e-PfQ35jhl6F61MtkI1w-4" value="" style="endArrow=none;html=1;entryX=0.776;entryY=0.05;entryDx=0;entryDy=0;entryPerimeter=0;endFill=0;startArrow=block;startFill=1;sketch=1;exitX=1.013;exitY=0.85;exitDx=0;exitDy=0;exitPerimeter=0;labelBackgroundColor=none;strokeColor=#A8201A;fontColor=default;" parent="1" source="iXj1oflpSY-SVl1FxMXK-56" target="iXj1oflpSY-SVl1FxMXK-48" edge="1">
          <mxGeometry width="50" height="50" relative="1" as="geometry">
            <mxPoint x="353.44000000000005" y="996" as="sourcePoint" />
            <mxPoint x="39.99900000000025" y="996.0105000000001" as="targetPoint" />
            <Array as="points">
              <mxPoint x="490" y="608" />
              <mxPoint x="490" y="890" />
              <mxPoint x="50" y="890" />
            </Array>
          </mxGeometry>
        </mxCell>
        <mxCell id="e-PfQ35jhl6F61MtkI1w-5" value="" style="rhombus;whiteSpace=wrap;html=1;fillColor=#FAE5C7;sketch=1;labelBackgroundColor=none;strokeColor=#0F8B8D;fontColor=#143642;" parent="1" vertex="1">
          <mxGeometry x="285" y="325" width="30" height="30" as="geometry" />
        </mxCell>
        <mxCell id="e-PfQ35jhl6F61MtkI1w-6" value="GraphX （图数据计算）" style="text;html=1;strokeColor=none;fillColor=none;align=center;verticalAlign=middle;whiteSpace=wrap;sketch=1;labelBackgroundColor=none;fontColor=#143642;" parent="1" vertex="1">
          <mxGeometry x="315" y="329" width="140" height="20" as="geometry" />
        </mxCell>
        <mxCell id="e-PfQ35jhl6F61MtkI1w-7" value="" style="rhombus;whiteSpace=wrap;html=1;fillColor=#FAE5C7;sketch=1;labelBackgroundColor=none;strokeColor=#0F8B8D;fontColor=#143642;" parent="1" vertex="1">
          <mxGeometry x="285" y="361" width="30" height="30" as="geometry" />
        </mxCell>
        <mxCell id="e-PfQ35jhl6F61MtkI1w-9" value="" style="endArrow=none;html=1;strokeColor=#A8201A;sketch=1;labelBackgroundColor=none;fontColor=default;" parent="1" edge="1">
          <mxGeometry width="50" height="50" relative="1" as="geometry">
            <mxPoint x="168" y="405" as="sourcePoint" />
            <mxPoint x="408" y="405" as="targetPoint" />
          </mxGeometry>
        </mxCell>
        <mxCell id="e-PfQ35jhl6F61MtkI1w-10" value="" style="endArrow=none;html=1;strokeColor=#A8201A;sketch=1;labelBackgroundColor=none;fontColor=default;" parent="1" edge="1">
          <mxGeometry width="50" height="50" relative="1" as="geometry">
            <mxPoint x="171" y="521" as="sourcePoint" />
            <mxPoint x="411" y="521" as="targetPoint" />
          </mxGeometry>
        </mxCell>
        <mxCell id="e-PfQ35jhl6F61MtkI1w-11" value="MLLib （机器学习）" style="text;html=1;strokeColor=none;fillColor=none;align=center;verticalAlign=middle;whiteSpace=wrap;sketch=1;labelBackgroundColor=none;fontColor=#143642;" parent="1" vertex="1">
          <mxGeometry x="315" y="365" width="120" height="20" as="geometry" />
        </mxCell>
        <mxCell id="e-PfQ35jhl6F61MtkI1w-12" value="" style="ellipse;whiteSpace=wrap;html=1;aspect=fixed;fillColor=none;sketch=1;labelBackgroundColor=none;strokeColor=#0F8B8D;fontColor=#143642;" parent="1" vertex="1">
          <mxGeometry x="-478" y="285.5" width="136.5" height="136.5" as="geometry" />
        </mxCell>
        <mxCell id="e-PfQ35jhl6F61MtkI1w-13" value="" style="endArrow=none;html=1;entryX=0.766;entryY=0.077;entryDx=0;entryDy=0;entryPerimeter=0;strokeWidth=1;startArrow=block;startFill=1;endFill=0;sketch=1;labelBackgroundColor=none;strokeColor=#A8201A;fontColor=default;" parent="1" source="iXj1oflpSY-SVl1FxMXK-55" edge="1">
          <mxGeometry width="50" height="50" relative="1" as="geometry">
            <mxPoint x="590" y="420" as="sourcePoint" />
            <mxPoint x="-414.4409999999998" y="285.5005000000001" as="targetPoint" />
            <Array as="points">
              <mxPoint x="480" y="400" />
              <mxPoint x="480" y="239" />
              <mxPoint x="-381" y="239.49" />
            </Array>
          </mxGeometry>
        </mxCell>
        <mxCell id="e-PfQ35jhl6F61MtkI1w-14" value="Memory Data Cache" style="text;html=1;strokeColor=none;fillColor=none;align=center;verticalAlign=middle;whiteSpace=wrap;fontStyle=1;sketch=1;labelBackgroundColor=none;fontColor=#143642;" parent="1" vertex="1">
          <mxGeometry x="260" y="217" width="190" height="20" as="geometry" />
        </mxCell>
        <mxCell id="e-PfQ35jhl6F61MtkI1w-15" value="" style="ellipse;whiteSpace=wrap;html=1;aspect=fixed;fillColor=none;sketch=1;labelBackgroundColor=none;strokeColor=#0F8B8D;fontColor=#143642;" parent="1" vertex="1">
          <mxGeometry x="-222" y="677.38" width="139.25" height="139.25" as="geometry" />
        </mxCell>
        <mxCell id="e-PfQ35jhl6F61MtkI1w-17" value="&lt;font face=&quot;libre franklin, helvetica, arial, serif&quot; color=&quot;#212529&quot;&gt;&lt;b&gt;宏观场景时间要素分析&lt;/b&gt;&lt;/font&gt;" style="text;html=1;strokeColor=none;fillColor=none;align=center;verticalAlign=middle;fontSize=11;labelBackgroundColor=none;labelBorderColor=#CCCCCC;spacingTop=0;spacing=2;whiteSpace=wrap;horizontal=1;sketch=1;fontColor=#143642;" parent="1" vertex="1">
          <mxGeometry x="318" y="536" width="132" height="20" as="geometry" />
        </mxCell>
        <mxCell id="e-PfQ35jhl6F61MtkI1w-20" value="&lt;font color=&quot;#212529&quot; face=&quot;libre franklin, helvetica, arial, serif&quot;&gt;&lt;b&gt;宏观场景空间要素分析&lt;/b&gt;&lt;/font&gt;" style="text;html=1;strokeColor=none;fillColor=none;align=center;verticalAlign=middle;fontSize=11;labelBackgroundColor=none;labelBorderColor=#CCCCCC;spacingTop=0;spacing=2;whiteSpace=wrap;horizontal=1;sketch=1;fontColor=#143642;" parent="1" vertex="1">
          <mxGeometry x="312" y="557" width="128" height="20" as="geometry" />
        </mxCell>
        <mxCell id="e-PfQ35jhl6F61MtkI1w-21" value="&lt;font color=&quot;#212529&quot; face=&quot;libre franklin, helvetica, arial, serif&quot;&gt;&lt;b&gt;Clustering&lt;/b&gt;&lt;/font&gt;" style="text;html=1;strokeColor=none;fillColor=none;align=center;verticalAlign=middle;fontSize=11;labelBackgroundColor=none;labelBorderColor=#CCCCCC;spacingTop=0;spacing=2;whiteSpace=wrap;horizontal=1;sketch=1;fontColor=#143642;" parent="1" vertex="1">
          <mxGeometry x="309" y="577" width="40" height="20" as="geometry" />
        </mxCell>
        <mxCell id="e-PfQ35jhl6F61MtkI1w-22" value="Java POJO Data Source" style="text;html=1;strokeColor=none;fillColor=none;align=center;verticalAlign=middle;whiteSpace=wrap;fontStyle=1;sketch=1;labelBackgroundColor=none;fontColor=#143642;" parent="1" vertex="1">
          <mxGeometry x="-39" y="890" width="190" height="20" as="geometry" />
        </mxCell>
        <mxCell id="e-PfQ35jhl6F61MtkI1w-23" value="分布式内存数据 / 计算服务" style="text;html=1;strokeColor=none;fillColor=none;align=center;verticalAlign=middle;whiteSpace=wrap;fontStyle=0;sketch=1;labelBackgroundColor=none;fontColor=#143642;" parent="1" vertex="1">
          <mxGeometry x="238" y="446" width="240" height="20" as="geometry" />
        </mxCell>
        <mxCell id="e-PfQ35jhl6F61MtkI1w-24" value="Java ， Scala" style="text;html=1;strokeColor=none;fillColor=none;align=center;verticalAlign=middle;whiteSpace=wrap;fontStyle=0;sketch=1;labelBackgroundColor=none;fontColor=#143642;" parent="1" vertex="1">
          <mxGeometry x="298" y="590" width="240" height="20" as="geometry" />
        </mxCell>
        <mxCell id="e-PfQ35jhl6F61MtkI1w-25" value="Java，SQL, Scala" style="text;html=1;strokeColor=none;fillColor=none;align=center;verticalAlign=middle;whiteSpace=wrap;fontStyle=0;sketch=1;labelBackgroundColor=none;fontColor=#143642;" parent="1" vertex="1">
          <mxGeometry x="229" y="472" width="230" height="20" as="geometry" />
        </mxCell>
        <mxCell id="e-PfQ35jhl6F61MtkI1w-26" value="" style="endArrow=none;html=1;entryX=0;entryY=0.643;entryDx=0;entryDy=0;entryPerimeter=0;startArrow=block;startFill=1;endFill=0;strokeWidth=2;strokeColor=#A8201A;sketch=1;labelBackgroundColor=none;fontColor=default;" parent="1" source="iXj1oflpSY-SVl1FxMXK-28" target="iXj1oflpSY-SVl1FxMXK-47" edge="1">
          <mxGeometry width="50" height="50" relative="1" as="geometry">
            <mxPoint x="-556.56" y="609.99" as="sourcePoint" />
            <mxPoint x="-870.0009999999997" y="610.0005000000001" as="targetPoint" />
            <Array as="points">
              <mxPoint x="-510" y="490" />
              <mxPoint x="-510" y="700" />
            </Array>
          </mxGeometry>
        </mxCell>
        <mxCell id="e-PfQ35jhl6F61MtkI1w-28" value="数据同步" style="text;html=1;strokeColor=none;fillColor=none;align=center;verticalAlign=middle;whiteSpace=wrap;fontStyle=1;horizontal=1;sketch=1;labelBackgroundColor=none;fontColor=#143642;" parent="1" vertex="1">
          <mxGeometry x="-602" y="452" width="190" height="20" as="geometry" />
        </mxCell>
        <mxCell id="e-PfQ35jhl6F61MtkI1w-31" value="" style="endArrow=none;html=1;entryX=0.88;entryY=1.006;entryDx=0;entryDy=0;entryPerimeter=0;startArrow=block;startFill=1;endFill=0;exitX=0.75;exitY=1;exitDx=0;exitDy=0;strokeWidth=3;strokeColor=#A8201A;sketch=1;labelBackgroundColor=none;fontColor=default;" parent="1" source="iXj1oflpSY-SVl1FxMXK-47" target="iXj1oflpSY-SVl1FxMXK-20" edge="1">
          <mxGeometry width="50" height="50" relative="1" as="geometry">
            <mxPoint x="-220" y="940.0041176470588" as="sourcePoint" />
            <mxPoint x="-220" y="1234.73" as="targetPoint" />
            <Array as="points">
              <mxPoint x="-147" y="940" />
              <mxPoint x="418" y="940" />
            </Array>
          </mxGeometry>
        </mxCell>
        <mxCell id="e-PfQ35jhl6F61MtkI1w-32" value="数据创建 / 关联" style="text;html=1;strokeColor=none;fillColor=none;align=center;verticalAlign=middle;whiteSpace=wrap;fontStyle=1;horizontal=1;sketch=1;labelBackgroundColor=none;fontColor=#143642;" parent="1" vertex="1">
          <mxGeometry x="205" y="941" width="190" height="20" as="geometry" />
        </mxCell>
      </root>
    </mxGraphModel>
  </diagram>
</mxfile>
